<?xml version="1.0" standalone="no"?>
<!DOCTYPE svg PUBLIC "-//W3C//DTD SVG 20010904//EN"
 "http://www.w3.org/TR/2001/REC-SVG-20010904/DTD/svg10.dtd">
<svg version="1.0" xmlns="http://www.w3.org/2000/svg"
 width="1024.000000pt" height="1024.000000pt" viewBox="0 0 1024.000000 1024.000000"
 preserveAspectRatio="xMidYMid meet">

<g transform="translate(0.000000,1024.000000) scale(0.100000,-0.100000)"
fill="#000000" stroke="none">
<path d="M1485 9509 c-176 -26 -324 -105 -450 -241 -104 -112 -163 -231 -197
-398 -27 -132 -21 -398 11 -510 75 -256 267 -467 498 -547 42 -15 115 -17 553
-20 428 -3 503 -2 490 10 -8 7 -45 40 -82 71 l-68 58 0 332 0 331 92 92 93 93
-489 0 c-370 0 -487 3 -484 12 2 6 19 17 37 23 60 20 70 78 22 126 -35 34 -64
37 -109 9 -62 -38 -79 -138 -34 -199 38 -52 57 -56 342 -61 l265 -5 3 -404 3
-403 -198 5 c-210 5 -239 10 -349 64 -69 33 -159 118 -199 187 -68 117 -104
262 -112 457 -12 294 49 522 178 663 97 106 215 151 379 144 80 -3 105 -8 155
-32 113 -56 187 -160 224 -314 l18 -76 121 240 121 240 -57 -19 c-75 -25 -154
-19 -332 26 -203 52 -320 64 -445 46z"/>
<path d="M4167 9400 c-92 -28 -150 -126 -151 -255 -1 -102 20 -160 79 -214 51
-47 109 -66 179 -57 66 7 115 42 151 107 28 50 30 61 29 154 0 109 -12 147
-61 205 -50 60 -144 84 -226 60z m147 -51 c45 -39 60 -102 54 -235 -5 -114
-24 -165 -72 -196 -38 -23 -107 -19 -138 8 -69 61 -86 266 -32 379 36 77 126
99 188 44z"/>
<path d="M4133 9125 c0 -44 2 -61 4 -37 2 23 2 59 0 80 -2 20 -4 1 -4 -43z"/>
<path d="M4141 9014 c0 -11 3 -14 6 -6 3 7 2 16 -1 19 -3 4 -6 -2 -5 -13z"/>
<path d="M2806 9329 l21 -20 -24 -67 c-29 -81 -37 -89 -60 -71 -17 13 -17 13
0 -7 27 -32 21 -51 -8 -24 -14 13 -26 22 -28 19 -2 -2 -8 -16 -14 -31 -11 -24
-9 -27 17 -38 l28 -12 -18 -52 c-28 -82 -56 -130 -95 -165 l-37 -32 102 2 c55
1 99 4 96 6 -2 3 -6 3 -9 1 -3 -1 -14 6 -26 16 -26 24 -27 69 -4 143 15 49 40
69 37 30 -1 -9 2 -14 6 -12 7 4 23 -13 68 -75 1 -2 20 16 41 40 22 25 41 43
43 40 7 -8 34 -71 49 -112 12 -35 11 -38 -12 -57 l-24 -21 102 1 102 1 -22 28
c-12 15 -24 26 -26 24 -2 -2 2 -10 9 -19 8 -10 9 -15 1 -15 -6 0 -17 10 -25
23 -23 35 -77 189 -72 204 3 7 19 13 35 13 l30 0 -17 39 c-15 36 -19 38 -33
25 -14 -12 -18 -13 -22 -2 -4 8 -6 7 -6 -4 -2 -39 -20 -13 -51 72 -31 87 -32
91 -15 110 18 20 17 20 -71 20 l-88 0 20 -21z m63 -109 c4 -3 19 -37 34 -76
l26 -72 -23 -21 c-21 -20 -23 -20 -41 -3 -19 17 -19 17 0 -6 12 -15 15 -26 9
-32 -7 -7 -24 7 -51 40 l-41 51 24 62 c14 34 30 73 36 87 l12 25 4 -25 c2 -14
7 -27 11 -30z"/>
<path d="M2846 9195 c-9 -26 -7 -32 5 -12 6 10 9 21 6 23 -2 3 -7 -2 -11 -11z"/>
<path d="M2817 9116 c-3 -8 4 -22 16 -33 22 -18 22 -18 6 2 -9 11 -14 26 -12
33 6 17 -4 15 -10 -2z"/>
<path d="M2976 9322 l-19 -27 24 22 c12 12 21 24 18 27 -2 2 -13 -8 -23 -22z"/>
<path d="M4750 9303 c0 -3 7 -14 16 -24 15 -17 13 -33 -21 -216 -47 -255 -43
-239 -72 -252 -14 -7 -23 -14 -20 -17 4 -5 139 -34 155 -34 1 0 -5 11 -14 25
-13 19 -15 37 -10 75 9 70 12 75 68 120 67 53 83 40 21 -17 -47 -44 -47 -44
-4 -9 25 20 46 34 48 32 4 -4 63 -208 63 -218 0 -4 -9 -10 -20 -13 -11 -3 -20
-10 -20 -14 0 -7 112 -30 172 -36 9 0 24 -7 33 -15 16 -13 16 -15 -2 -21 -14
-6 -12 -7 9 -6 l28 1 -37 38 c-20 20 -39 35 -43 33 -16 -10 -38 36 -68 140
-18 61 -39 131 -46 156 l-14 47 61 50 c66 52 134 91 164 93 15 1 -145 37 -171
38 -5 1 -1 -8 9 -19 30 -33 12 -62 -92 -146 -54 -44 -104 -85 -112 -92 -7 -7
-15 -11 -17 -9 -3 2 6 59 18 127 21 114 24 123 51 137 16 8 26 17 24 20 -4 4
-140 33 -154 33 -2 0 -3 -3 -3 -7z"/>
<path d="M2960 9285 c0 -5 5 -17 10 -25 5 -8 10 -10 10 -5 0 6 -5 17 -10 25
-5 8 -10 11 -10 5z"/>
<path d="M3398 9243 c20 -14 22 -23 22 -124 0 -108 0 -109 -23 -109 -13 0 -32
-9 -42 -21 -19 -20 -19 -20 9 -10 15 6 34 11 42 11 23 0 16 -28 -8 -33 l-23
-4 23 -2 c21 -1 22 -5 22 -83 0 -71 -3 -85 -22 -106 l-23 -23 87 2 c63 1 92
-2 104 -12 15 -12 5 -15 -82 -20 l-99 -5 109 -2 110 -2 -29 30 c-15 16 -31 27
-35 25 -4 -3 -15 4 -24 14 -14 15 -16 36 -14 117 l3 99 95 5 c115 6 152 24
176 86 12 33 13 49 5 81 -22 82 -74 102 -266 102 -130 0 -138 -1 -117 -16z
m274 -52 c20 -22 28 -42 28 -67 0 -71 -40 -102 -137 -106 l-58 -3 -3 109 -3
109 73 -5 c65 -5 75 -9 100 -37z"/>
<path d="M4903 9243 c-13 -8 -23 -21 -23 -27 0 -7 3 -8 8 0 4 5 18 18 32 27
13 9 20 17 15 16 -6 0 -20 -7 -32 -16z"/>
<path d="M2990 9205 c0 -5 5 -17 10 -25 5 -8 10 -10 10 -5 0 6 -5 17 -10 25
-5 8 -10 11 -10 5z"/>
<path d="M4491 9174 c0 -11 3 -14 6 -6 3 7 2 16 -1 19 -3 4 -6 -2 -5 -13z"/>
<path d="M4871 9164 c0 -11 3 -14 6 -6 3 7 2 16 -1 19 -3 4 -6 -2 -5 -13z"/>
<path d="M5403 9055 l22 -54 13 27 c21 41 41 52 93 52 l48 0 1 -224 1 -224
-28 -22 -27 -21 91 2 c50 1 97 -2 104 -6 8 -5 4 3 -8 16 -22 24 -23 34 -26
239 l-2 215 -3 -216 c-1 -156 1 -218 10 -227 7 -7 8 -12 2 -12 -30 0 -34 27
-34 251 0 216 1 228 19 234 41 13 121 -28 121 -62 0 -25 15 -12 34 30 11 23
22 45 24 50 2 4 -104 7 -236 7 l-240 0 21 -55z"/>
<path d="M4491 9084 c0 -11 3 -14 6 -6 3 7 2 16 -1 19 -3 4 -6 -2 -5 -13z"/>
<path d="M5019 9083 c-13 -16 -12 -17 4 -4 9 7 17 15 17 17 0 8 -8 3 -21 -13z"/>
<path d="M5860 9049 c-12 -23 -20 -43 -18 -45 3 -2 14 17 26 41 27 56 20 60
-8 4z"/>
<path d="M3811 9064 c0 -11 3 -14 6 -6 3 7 2 16 -1 19 -3 4 -6 -2 -5 -13z"/>
<path d="M3051 9044 c0 -11 3 -14 6 -6 3 7 2 16 -1 19 -3 4 -6 -2 -5 -13z"/>
<path d="M5479 9033 c-13 -17 -13 -17 6 -3 11 8 22 16 24 17 2 2 0 3 -6 3 -6
0 -17 -8 -24 -17z"/>
<path d="M3785 9014 c-9 -15 -12 -23 -6 -20 11 7 35 46 28 46 -3 0 -12 -12
-22 -26z"/>
<path d="M7008 9017 c21 -22 22 -32 22 -208 0 -198 -7 -244 -43 -271 -21 -17
-20 -18 56 -18 l78 0 -26 23 c-20 17 -28 36 -35 87 -12 80 -13 320 -2 320 4 0
58 -96 119 -212 111 -213 111 -213 146 -216 l36 -3 3 235 c3 232 3 235 27 260
l24 26 -68 0 -68 0 23 -25 c23 -24 24 -34 28 -177 3 -102 1 -149 -6 -144 -7 4
-7 -5 1 -29 9 -30 5 -57 -7 -44 -2 2 -47 90 -99 194 -96 190 -96 190 -76 208
21 16 18 17 -67 17 l-87 0 21 -23z"/>
<path d="M7180 9019 c-22 -18 -22 -19 -3 -10 12 6 25 16 28 21 9 15 3 12 -25
-11z"/>
<path d="M6266 9009 l21 -20 -24 -67 c-29 -81 -37 -89 -60 -71 -17 13 -17 13
0 -7 27 -32 21 -51 -8 -24 -14 13 -26 22 -28 19 -2 -2 -8 -16 -14 -31 -11 -24
-9 -27 17 -38 l28 -12 -18 -52 c-28 -82 -56 -130 -95 -165 l-37 -32 102 2 c55
1 99 4 96 6 -2 3 -6 3 -9 1 -3 -1 -14 6 -26 16 -26 24 -27 69 -4 143 15 49 40
69 37 30 -1 -9 2 -14 6 -12 7 4 23 -13 68 -75 1 -2 20 16 41 40 22 25 41 43
43 40 7 -8 34 -71 49 -112 12 -35 11 -38 -12 -57 l-24 -21 102 1 102 1 -22 28
c-12 15 -24 26 -26 24 -2 -2 2 -10 9 -19 8 -10 9 -15 1 -15 -6 0 -17 10 -25
23 -23 35 -77 189 -72 204 3 7 19 13 35 13 l30 0 -17 39 c-15 36 -19 38 -33
25 -14 -12 -18 -13 -22 -2 -4 8 -6 7 -6 -4 -2 -39 -20 -13 -51 72 -31 87 -32
91 -15 110 18 20 17 20 -71 20 l-88 0 20 -21z m63 -109 c4 -3 19 -37 34 -76
l26 -72 -23 -21 c-21 -20 -23 -20 -41 -3 -19 17 -19 17 0 -6 12 -15 15 -26 9
-32 -7 -7 -24 7 -51 40 l-41 51 24 62 c14 34 30 73 36 87 l12 25 4 -25 c2 -14
7 -27 11 -30z"/>
<path d="M6306 8875 c-9 -26 -7 -32 5 -12 6 10 9 21 6 23 -2 3 -7 -2 -11 -11z"/>
<path d="M6277 8796 c-3 -8 4 -22 16 -33 22 -18 22 -18 6 2 -9 11 -14 26 -12
33 6 17 -4 15 -10 -2z"/>
<path d="M6436 9002 l-19 -27 24 22 c12 12 21 24 18 27 -2 2 -13 -8 -23 -22z"/>
<path d="M2909 8953 c-13 -16 -12 -17 4 -4 9 7 17 15 17 17 0 8 -8 3 -21 -13z"/>
<path d="M6420 8965 c0 -5 5 -17 10 -25 5 -8 10 -10 10 -5 0 6 -5 17 -10 25
-5 8 -10 11 -10 5z"/>
<path d="M4421 8917 c-29 -35 -30 -38 -7 -17 24 22 52 60 44 60 -2 0 -18 -19
-37 -43z"/>
<path d="M6450 8885 c0 -5 5 -17 10 -25 5 -8 10 -10 10 -5 0 6 -5 17 -10 25
-5 8 -10 11 -10 5z"/>
<path d="M4811 8844 c0 -11 3 -14 6 -6 3 7 2 16 -1 19 -3 4 -6 -2 -5 -13z"/>
<path d="M4298 8843 c7 -3 16 -2 19 1 4 3 -2 6 -13 5 -11 0 -14 -3 -6 -6z"/>
<path d="M2795 8810 c3 -6 -34 -11 -97 -13 l-103 -3 114 -2 c100 -2 112 0 101
13 -14 17 -25 20 -15 5z"/>
<path d="M3185 8810 c3 -6 -36 -11 -102 -13 l-108 -3 119 -2 c104 -2 117 0
106 13 -14 17 -25 20 -15 5z"/>
<path d="M7265 8780 c9 -16 18 -30 21 -30 2 0 -2 14 -11 30 -9 17 -18 30 -21
30 -2 0 2 -13 11 -30z"/>
<path d="M4829 8753 c9 -18 8 -22 -7 -26 -13 -4 -11 -5 6 -6 26 -1 28 8 6 35
-15 18 -15 18 -5 -3z"/>
<path d="M6511 8724 c0 -11 3 -14 6 -6 3 7 2 16 -1 19 -3 4 -6 -2 -5 -13z"/>
<path d="M4978 8693 c7 -3 16 -2 19 1 4 3 -2 6 -13 5 -11 0 -14 -3 -6 -6z"/>
<path d="M6369 8633 c-13 -16 -12 -17 4 -4 9 7 17 15 17 17 0 8 -8 3 -21 -13z"/>
<path d="M3958 8563 c20 -14 22 -23 22 -124 0 -108 0 -109 -23 -109 -13 0 -32
-9 -42 -21 -19 -20 -19 -20 9 -10 15 6 34 11 42 11 23 0 16 -28 -8 -33 l-23
-4 23 -2 c21 -1 22 -5 22 -83 0 -71 -3 -85 -22 -106 l-23 -23 87 2 c63 1 92
-2 104 -12 15 -12 5 -15 -82 -20 l-99 -5 109 -2 110 -2 -29 30 c-15 16 -31 27
-35 25 -4 -3 -15 4 -24 14 -14 15 -16 36 -14 117 l3 99 95 5 c115 6 152 24
176 86 12 33 13 49 5 81 -22 82 -74 102 -266 102 -130 0 -138 -1 -117 -16z
m274 -52 c20 -22 28 -42 28 -67 0 -71 -40 -102 -137 -106 l-58 -3 -3 109 -3
109 73 -5 c65 -5 75 -9 100 -37z"/>
<path d="M3455 8498 c-33 -39 -59 -76 -57 -82 3 -12 164 -450 166 -453 1 -1 8
2 15 7 12 6 -2 51 -68 229 l-83 220 53 61 c30 33 54 66 54 72 0 29 -25 12 -80
-54z"/>
<path d="M5635 8560 l-100 -6 108 -2 c70 -1 106 2 102 8 -3 6 -7 9 -8 8 -1 -1
-47 -5 -102 -8z"/>
<path d="M6255 8490 c3 -6 -34 -11 -97 -13 l-103 -3 114 -2 c100 -2 112 0 101
13 -14 17 -25 20 -15 5z"/>
<path d="M6645 8490 c3 -6 -36 -11 -102 -13 l-108 -3 119 -2 c104 -2 117 0
106 13 -14 17 -25 20 -15 5z"/>
<path d="M7050 8490 l-105 -6 113 -2 c73 -1 111 2 107 8 -3 6 -7 9 -8 8 -1 -1
-49 -5 -107 -8z"/>
<path d="M7328 8483 c12 -2 32 -2 45 0 12 2 2 4 -23 4 -25 0 -35 -2 -22 -4z"/>
<path d="M4371 8384 c0 -11 3 -14 6 -6 3 7 2 16 -1 19 -3 4 -6 -2 -5 -13z"/>
<path d="M4345 8334 c-9 -15 -12 -23 -6 -20 11 7 35 46 28 46 -3 0 -12 -12
-22 -26z"/>
<path d="M3062 8054 l-73 -196 48 -51 c40 -43 69 -79 141 -177 2 -2 7 2 12 10
10 16 -45 100 -117 181 l-43 47 65 172 c51 135 63 176 55 191 -6 10 -12 19
-13 19 -1 0 -35 -88 -75 -196z"/>
<path d="M2744 8096 c-3 -9 10 -29 37 -53 67 -61 78 -67 85 -48 8 19 -11 41
-71 84 -36 26 -46 29 -51 17z"/>
<path d="M3784 7953 c13 -38 37 -96 55 -130 17 -34 31 -64 31 -65 0 -2 -49 -1
-110 0 -92 3 -110 1 -110 -11 0 -8 45 -134 100 -278 110 -291 91 -261 250
-402 l65 -57 -315 0 c-281 0 -313 -2 -299 -15 13 -13 62 -15 348 -13 l333 3
-129 116 -128 116 -93 249 c-52 137 -92 254 -90 259 3 11 14 11 141 2 l87 -7
-43 88 c-24 48 -52 110 -62 137 -20 54 -33 75 -46 75 -4 0 3 -30 15 -67z"/>
<path d="M4458 7753 c20 -14 22 -23 22 -124 0 -108 0 -109 -23 -109 -13 0 -32
-9 -42 -21 -19 -20 -19 -20 9 -10 15 6 34 11 42 11 23 0 16 -28 -8 -33 l-23
-4 23 -2 c21 -1 22 -5 22 -83 0 -71 -3 -85 -22 -106 l-23 -23 87 2 c63 1 92
-2 104 -12 15 -12 5 -15 -82 -20 l-99 -5 109 -2 110 -2 -29 30 c-15 16 -31 27
-35 25 -4 -3 -15 4 -24 14 -14 15 -16 36 -14 117 l3 99 95 5 c115 6 152 24
176 86 12 33 13 49 5 81 -22 82 -74 102 -266 102 -130 0 -138 -1 -117 -16z
m274 -52 c20 -22 28 -42 28 -67 0 -71 -40 -102 -137 -106 l-58 -3 -3 109 -3
109 73 -5 c65 -5 75 -9 100 -37z"/>
<path d="M2902 7609 c-66 -178 -86 -307 -62 -395 8 -26 39 -81 72 -125 l58
-79 -297 0 c-266 0 -296 -2 -282 -15 13 -13 59 -15 326 -13 l311 3 -64 85
c-80 107 -95 138 -101 214 -6 71 22 201 62 291 22 51 24 61 11 73 -12 12 -17
7 -34 -39z"/>
<path d="M4871 7574 c0 -11 3 -14 6 -6 3 7 2 16 -1 19 -3 4 -6 -2 -5 -13z"/>
<path d="M3313 7498 c-78 -93 -133 -167 -133 -180 0 -22 28 -3 52 35 16 24 59
80 98 125 66 76 82 102 61 102 -5 0 -40 -37 -78 -82z"/>
<path d="M4845 7524 c-9 -15 -12 -23 -6 -20 11 7 35 46 28 46 -3 0 -12 -12
-22 -26z"/>
<path d="M6227 7492 c-16 -11 -62 -59 -102 -107 l-74 -88 6 -66 c3 -36 9 -73
14 -82 4 -9 6 -25 3 -35 -6 -23 11 -74 25 -74 5 0 12 13 16 30 9 42 19 44 54
14 37 -31 57 -22 67 31 l6 34 141 -3 c160 -4 199 -14 239 -66 l25 -32 36 32
37 32 6 -41 c4 -23 10 -41 15 -41 20 0 63 83 62 119 -3 71 -19 147 -37 171
-22 28 -166 149 -199 167 -12 6 -87 14 -167 18 -133 6 -147 5 -173 -13z"/>
<path d="M6753 6629 c-7 -7 -13 -28 -13 -46 0 -66 -38 -111 -162 -191 -37 -24
-70 -53 -74 -64 -5 -18 -8 -17 -25 12 -21 34 -87 69 -130 70 -34 0 -43 12 -73
91 -28 75 -45 83 -90 41 -24 -23 -43 -31 -86 -35 -31 -3 -71 -14 -90 -25 -19
-12 -69 -33 -110 -48 -193 -68 -338 -160 -375 -237 -11 -23 -40 -56 -65 -75
-25 -19 -49 -40 -53 -48 -5 -9 18 -54 67 -131 41 -65 72 -121 68 -125 -4 -4
-77 -37 -162 -73 -85 -37 -169 -73 -186 -81 -23 -10 -50 -12 -93 -8 -49 6 -62
4 -66 -8 -4 -9 10 -56 29 -105 43 -110 61 -207 47 -245 -35 -92 -184 2 -262
167 -32 67 -38 143 -18 235 11 51 18 59 117 137 l24 19 -40 -4 -40 -4 -6 114
c-4 62 -11 223 -17 358 -6 135 -12 246 -13 247 -1 2 -121 17 -265 34 l-263 30
-374 -62 -374 -63 0 -383 c0 -211 1 -383 3 -384 1 0 142 -15 312 -33 l310 -32
143 29 c79 16 145 28 147 25 2 -2 9 -114 14 -248 6 -135 13 -284 16 -332 5
-84 5 -88 -15 -88 -15 0 -20 -7 -20 -25 0 -14 1 -25 3 -26 1 0 142 -15 312
-33 l310 -32 160 34 c88 19 240 51 338 72 98 21 181 40 183 43 3 3 -2 170 -11
372 -18 408 -21 379 48 404 31 11 27 18 94 -154 60 -153 74 -240 80 -511 6
-257 -2 -358 -38 -461 -39 -115 -18 -163 72 -163 43 0 50 -3 45 -16 -18 -47
-48 -353 -49 -489 0 -165 10 -247 79 -658 66 -392 97 -474 259 -681 41 -53 98
-128 125 -166 l50 -70 -25 -85 c-24 -83 -85 -548 -85 -649 0 -40 5 -53 31 -79
28 -28 30 -33 18 -51 -7 -12 -16 -48 -19 -81 l-5 -60 -112 -3 -111 -3 -6 73
c-3 40 -15 305 -26 588 -11 283 -23 559 -26 612 l-6 96 -48 7 -48 7 -6 71 c-3
40 -10 191 -16 337 -6 145 -12 266 -14 267 -1 2 -119 17 -262 34 l-259 30
-108 -17 c-59 -9 -109 -15 -111 -13 -3 2 -9 121 -15 264 -6 143 -14 301 -17
351 l-6 91 -260 -53 -260 -53 -289 29 c-159 17 -298 30 -309 30 -20 0 -20 8
-20 370 0 204 -2 370 -5 370 -2 0 -67 -13 -144 -30 l-140 -30 -291 30 c-160
17 -299 30 -310 30 -14 0 -20 7 -20 23 l0 24 -150 -26 -150 -25 0 -382 0 -383
28 -3 c16 -2 -3 -8 -50 -16 l-78 -13 0 -734 0 -734 43 -6 c42 -6 517 -55 745
-77 l122 -12 -2 -675 -3 -675 -110 -23 c-60 -12 -132 -22 -160 -22 -27 -1
-295 24 -595 54 -300 30 -553 55 -562 55 -15 0 -18 10 -18 66 l0 66 -117 -6
c-65 -3 -221 -11 -348 -16 -798 -36 -1331 -94 -1330 -145 2 -70 772 -135 2050
-175 1352 -42 3638 -42 5010 0 1208 37 1968 99 2034 165 13 13 10 16 -22 30
-57 24 -241 52 -457 70 -107 9 -205 18 -217 21 -13 2 -32 21 -45 44 -22 37
-26 40 -69 40 -39 0 -47 4 -57 25 -7 14 -32 47 -56 73 -53 57 -70 95 -61 141
10 55 33 80 109 116 39 20 84 46 100 58 l29 23 -39 -4 c-60 -7 -178 -94 -210
-154 -30 -58 -12 -128 56 -213 56 -71 56 -73 8 -94 -69 -30 -144 -33 -498 -17
-184 8 -428 18 -542 22 -117 4 -208 11 -208 16 0 5 5 19 12 31 6 12 15 58 19
102 6 71 14 95 63 191 65 127 86 195 68 217 -7 8 -51 29 -97 46 -81 31 -85 34
-85 62 0 48 -17 67 -83 97 -66 31 -123 85 -155 149 -10 21 -36 84 -57 141
l-38 102 16 128 c26 200 96 985 100 1112 2 63 9 135 15 160 9 34 42 522 42
614 0 10 -9 16 -22 16 -41 0 -86 36 -97 77 -6 21 -11 45 -11 53 0 31 21 89 45
125 l26 37 -21 33 c-26 42 -25 83 2 113 21 21 23 37 30 180 4 86 4 255 1 375
l-6 217 71 0 c88 0 109 -8 160 -59 22 -23 45 -41 51 -41 20 0 221 220 221 242
0 22 -54 104 -105 159 -28 31 -66 81 -83 112 -17 30 -46 65 -64 78 -18 13 -66
52 -105 86 -80 70 -96 78 -202 100 -40 8 -112 33 -160 56 -93 43 -176 59 -198
36z m-93 -3299 c-6 -69 -13 -145 -17 -170 l-7 -45 -13 55 c-8 32 -16 155 -20
297 l-6 241 34 34 34 33 3 -160 c2 -88 -2 -216 -8 -285z m349 -1478 c66 -34
75 -63 105 -319 l7 -53 -124 0 c-68 0 -145 3 -171 6 -42 6 -47 9 -56 43 -15
54 -13 63 9 52 16 -9 19 -5 24 43 3 29 19 87 35 128 17 42 33 97 37 124 12 89
12 89 58 40 23 -25 57 -53 76 -64z"/>
<path d="M1786 4223 c-4 -43 -7 -130 -7 -193 -1 -63 -5 -179 -11 -256 -18
-249 12 -367 127 -489 51 -55 55 -58 48 -30 -3 17 -25 55 -48 85 -98 126 -102
153 -86 584 7 188 14 349 17 359 4 12 0 17 -14 17 -18 0 -21 -9 -26 -77z"/>
<path d="M2240 2987 c153 -103 252 -158 272 -151 33 10 -223 174 -272 174
l-35 0 35 -23z"/>
<path d="M8955 2288 c6 -155 6 -165 -15 -203 -12 -22 -25 -52 -30 -67 -8 -24
-7 -26 10 -16 54 34 95 161 72 227 -6 17 -8 69 -5 125 6 94 5 96 -16 96 l-22
0 6 -162z"/>
</g>
</svg>
